<svg xmlns="http://www.w3.org/2000/svg" width="42.500" height="42.500" viewBox="0 0 42.500 42.500" fill="none">
  <path d="M 8.181 32.088 C 9.988 30.706 12.006 29.617 14.238 28.82 C 16.469 28.023 18.806 27.625 21.25 27.625 C 23.694 27.625 26.031 28.023 28.263 28.82 C 30.494 29.617 32.513 30.706 34.319 32.088 C 35.558 30.635 36.523 28.989 37.214 27.147 C 37.905 25.305 38.25 23.34 38.25 21.25 C 38.25 16.54 36.594 12.529 33.283 9.217 C 29.971 5.906 25.96 4.25 21.25 4.25 C 16.54 4.25 12.529 5.906 9.217 9.217 C 5.906 12.529 4.25 16.54 4.25 21.25 C 4.25 23.34 4.595 25.305 5.286 27.147 C 5.977 28.989 6.942 30.635 8.181 32.088 Z M 15.964 21.223 C 14.53 19.789 13.813 18.027 13.813 15.938 C 13.813 13.848 14.53 12.086 15.964 10.652 C 17.398 9.217 19.16 8.5 21.25 8.5 C 23.34 8.5 25.102 9.217 26.536 10.652 C 27.97 12.086 28.688 13.848 28.688 15.938 C 28.688 18.027 27.97 19.789 26.536 21.223 C 25.102 22.658 23.34 23.375 21.25 23.375 C 19.16 23.375 17.398 22.658 15.964 21.223 Z M 21.25 42.5 C 18.31 42.5 15.548 41.942 12.962 40.827 C 10.377 39.711 8.128 38.197 6.216 36.284 C 4.303 34.372 2.789 32.123 1.673 29.538 C 0.558 26.952 0 24.19 0 21.25 C 0 18.31 0.558 15.548 1.673 12.962 C 2.789 10.377 4.303 8.128 6.216 6.216 C 8.128 4.303 10.377 2.789 12.962 1.673 C 15.548 0.558 18.31 0 21.25 0 C 24.19 0 26.952 0.558 29.538 1.673 C 32.123 2.789 34.372 4.303 36.284 6.216 C 38.197 8.128 39.711 10.377 40.827 12.962 C 41.942 15.548 42.5 18.31 42.5 21.25 C 42.5 24.19 41.942 26.952 40.827 29.538 C 39.711 32.123 38.197 34.372 36.284 36.284 C 34.372 38.197 32.123 39.711 29.538 40.827 C 26.952 41.942 24.19 42.5 21.25 42.5 Z M 26.563 37.427 C 28.227 36.878 29.75 36.09 31.131 35.063 C 29.75 34.035 28.227 33.247 26.563 32.698 C 24.898 32.149 23.127 31.875 21.25 31.875 C 19.373 31.875 17.602 32.149 15.938 32.698 C 14.273 33.247 12.75 34.035 11.369 35.063 C 12.75 36.09 14.273 36.878 15.938 37.427 C 17.602 37.976 19.373 38.25 21.25 38.25 C 23.127 38.25 24.898 37.976 26.563 37.427 Z M 23.534 18.222 C 24.136 17.62 24.438 16.858 24.438 15.938 C 24.438 15.017 24.136 14.255 23.534 13.653 C 22.932 13.051 22.171 12.75 21.25 12.75 C 20.329 12.75 19.568 13.051 18.966 13.653 C 18.364 14.255 18.063 15.017 18.063 15.938 C 18.063 16.858 18.364 17.62 18.966 18.222 C 19.568 18.824 20.329 19.125 21.25 19.125 C 22.171 19.125 22.932 18.824 23.534 18.222 Z" fill="currentColor" fill-rule="nonzero"></path>
</svg>