<svg xmlns="http://www.w3.org/2000/svg" width="14.411" height="14.411" viewBox="0 0 14.411 14.411" fill="none">
  <path d="M 3.963 10.448 L 9.007 9.007 L 10.448 3.963 L 5.404 5.404 L 3.963 10.448 Z M 7.206 8.286 C 6.905 8.286 6.65 8.181 6.44 7.971 C 6.23 7.761 6.125 7.506 6.125 7.206 C 6.125 6.905 6.23 6.65 6.44 6.44 C 6.65 6.23 6.905 6.125 7.206 6.125 C 7.506 6.125 7.761 6.23 7.971 6.44 C 8.181 6.65 8.286 6.905 8.286 7.206 C 8.286 7.506 8.181 7.761 7.971 7.971 C 7.761 8.181 7.506 8.286 7.206 8.286 Z M 7.206 14.411 C 6.209 14.411 5.272 14.222 4.395 13.844 C 3.519 13.465 2.756 12.952 2.108 12.303 C 1.459 11.655 0.946 10.892 0.567 10.016 C 0.189 9.139 0 8.202 0 7.206 C 0 6.209 0.189 5.272 0.567 4.395 C 0.946 3.519 1.459 2.756 2.108 2.108 C 2.756 1.459 3.519 0.946 4.395 0.567 C 5.272 0.189 6.209 0 7.206 0 C 8.202 0 9.139 0.189 10.016 0.567 C 10.892 0.946 11.655 1.459 12.303 2.108 C 12.952 2.756 13.465 3.519 13.844 4.395 C 14.222 5.272 14.411 6.209 14.411 7.206 C 14.411 8.202 14.222 9.139 13.844 10.016 C 13.465 10.892 12.952 11.655 12.303 12.303 C 11.655 12.952 10.892 13.465 10.016 13.844 C 9.139 14.222 8.202 14.411 7.206 14.411 Z M 7.206 12.97 C 8.803 12.97 10.163 12.409 11.286 11.286 C 12.409 10.163 12.97 8.803 12.97 7.206 C 12.97 5.608 12.409 4.248 11.286 3.125 C 10.163 2.003 8.803 1.441 7.206 1.441 C 5.608 1.441 4.248 2.003 3.125 3.125 C 2.003 4.248 1.441 5.608 1.441 7.206 C 1.441 8.803 2.003 10.163 3.125 11.286 C 4.248 12.409 5.608 12.97 7.206 12.97 Z" fill="currentColor" fill-rule="nonzero"></path>
</svg>