<svg xmlns="http://www.w3.org/2000/svg" width="18.333" height="13.333" viewBox="0 0 18.333 13.333" fill="none">
  <path d="M 10.833 4.917 L 10.833 3.5 C 11.292 3.306 11.76 3.16 12.24 3.063 C 12.719 2.965 13.222 2.917 13.75 2.917 C 14.111 2.917 14.465 2.944 14.812 3 C 15.16 3.056 15.5 3.125 15.833 3.208 L 15.833 4.542 C 15.5 4.417 15.163 4.323 14.823 4.26 C 14.483 4.198 14.125 4.167 13.75 4.167 C 13.222 4.167 12.715 4.233 12.229 4.365 C 11.743 4.497 11.278 4.681 10.833 4.917 Z M 10.833 9.5 L 10.833 8.083 C 11.292 7.889 11.76 7.743 12.24 7.646 C 12.719 7.549 13.222 7.5 13.75 7.5 C 14.111 7.5 14.465 7.528 14.812 7.583 C 15.16 7.639 15.5 7.708 15.833 7.792 L 15.833 9.125 C 15.5 9 15.163 8.906 14.823 8.844 C 14.483 8.781 14.125 8.75 13.75 8.75 C 13.222 8.75 12.715 8.813 12.229 8.938 C 11.743 9.063 11.278 9.25 10.833 9.5 Z M 10.833 7.208 L 10.833 5.792 C 11.292 5.597 11.76 5.451 12.24 5.354 C 12.719 5.257 13.222 5.208 13.75 5.208 C 14.111 5.208 14.465 5.236 14.812 5.292 C 15.16 5.347 15.5 5.417 15.833 5.5 L 15.833 6.833 C 15.5 6.708 15.163 6.615 14.823 6.552 C 14.483 6.49 14.125 6.458 13.75 6.458 C 13.222 6.458 12.715 6.524 12.229 6.656 C 11.743 6.788 11.278 6.972 10.833 7.208 Z M 4.583 10 C 5.236 10 5.872 10.073 6.49 10.219 C 7.108 10.365 7.722 10.583 8.333 10.875 L 8.333 2.667 C 7.764 2.333 7.16 2.083 6.521 1.917 C 5.882 1.75 5.236 1.667 4.583 1.667 C 4.083 1.667 3.587 1.715 3.094 1.812 C 2.601 1.91 2.125 2.056 1.667 2.25 L 1.667 10.5 C 2.153 10.333 2.635 10.208 3.115 10.125 C 3.594 10.042 4.083 10 4.583 10 Z M 10 10.875 C 10.611 10.583 11.226 10.365 11.844 10.219 C 12.462 10.073 13.097 10 13.75 10 C 14.25 10 14.74 10.042 15.219 10.125 C 15.698 10.208 16.181 10.333 16.667 10.5 L 16.667 2.25 C 16.208 2.056 15.733 1.91 15.24 1.812 C 14.747 1.715 14.25 1.667 13.75 1.667 C 13.097 1.667 12.451 1.75 11.812 1.917 C 11.174 2.083 10.569 2.333 10 2.667 L 10 10.875 Z M 9.167 13.333 C 8.5 12.806 7.778 12.396 7 12.104 C 6.222 11.813 5.417 11.667 4.583 11.667 C 4 11.667 3.427 11.743 2.865 11.896 C 2.302 12.049 1.764 12.264 1.25 12.542 C 0.958 12.694 0.677 12.688 0.406 12.521 C 0.135 12.354 0 12.111 0 11.792 L 0 1.75 C 0 1.597 0.038 1.451 0.115 1.313 C 0.191 1.174 0.306 1.069 0.458 1 C 1.097 0.667 1.764 0.417 2.458 0.25 C 3.153 0.083 3.861 0 4.583 0 C 5.389 0 6.177 0.104 6.948 0.313 C 7.719 0.521 8.458 0.833 9.167 1.25 C 9.875 0.833 10.615 0.521 11.385 0.313 C 12.156 0.104 12.944 0 13.75 0 C 14.472 0 15.181 0.083 15.875 0.25 C 16.569 0.417 17.236 0.667 17.875 1 C 18.028 1.069 18.142 1.174 18.219 1.313 C 18.295 1.451 18.333 1.597 18.333 1.75 L 18.333 11.792 C 18.333 12.111 18.198 12.354 17.927 12.521 C 17.656 12.688 17.375 12.694 17.083 12.542 C 16.569 12.264 16.031 12.049 15.469 11.896 C 14.906 11.743 14.333 11.667 13.75 11.667 C 12.917 11.667 12.111 11.813 11.333 12.104 C 10.556 12.396 9.833 12.806 9.167 13.333 Z" fill="currentColor" fill-rule="nonzero"></path>
</svg>