<svg xmlns="http://www.w3.org/2000/svg" width="11.529" height="11.529" viewBox="0 0 11.529 11.529" fill="none">
  <path d="M 3.729 4.918 C 3.164 4.353 2.882 3.675 2.882 2.882 C 2.882 2.09 3.164 1.411 3.729 0.847 C 4.293 0.282 4.972 0 5.764 0 C 6.557 0 7.236 0.282 7.8 0.847 C 8.364 1.411 8.647 2.09 8.647 2.882 C 8.647 3.675 8.364 4.353 7.8 4.918 C 7.236 5.482 6.557 5.764 5.764 5.764 C 4.972 5.764 4.293 5.482 3.729 4.918 Z M 0 11.529 L 0 9.511 C 0 9.103 0.105 8.728 0.315 8.385 C 0.525 8.043 0.805 7.782 1.153 7.602 C 1.897 7.23 2.654 6.95 3.423 6.764 C 4.191 6.578 4.972 6.485 5.764 6.485 C 6.557 6.485 7.338 6.578 8.106 6.764 C 8.875 6.95 9.631 7.23 10.376 7.602 C 10.724 7.782 11.003 8.043 11.214 8.385 C 11.424 8.728 11.529 9.103 11.529 9.511 L 11.529 11.529 L 0 11.529 Z M 1.441 10.088 L 10.088 10.088 L 10.088 9.511 C 10.088 9.379 10.055 9.259 9.989 9.151 C 9.923 9.043 9.836 8.959 9.727 8.899 C 9.079 8.575 8.424 8.331 7.764 8.169 C 7.103 8.007 6.437 7.926 5.764 7.926 C 5.092 7.926 4.425 8.007 3.765 8.169 C 3.104 8.331 2.45 8.575 1.801 8.899 C 1.693 8.959 1.606 9.043 1.54 9.151 C 1.474 9.259 1.441 9.379 1.441 9.511 L 1.441 10.088 Z M 6.782 3.9 C 7.064 3.618 7.206 3.279 7.206 2.882 C 7.206 2.486 7.064 2.147 6.782 1.864 C 6.5 1.582 6.161 1.441 5.764 1.441 C 5.368 1.441 5.029 1.582 4.747 1.864 C 4.464 2.147 4.323 2.486 4.323 2.882 C 4.323 3.279 4.464 3.618 4.747 3.9 C 5.029 4.182 5.368 4.323 5.764 4.323 C 6.161 4.323 6.5 4.182 6.782 3.9 Z" fill="currentColor" fill-rule="nonzero"></path>
</svg>