<svg xmlns="http://www.w3.org/2000/svg" width="14.398" height="14.411" viewBox="0 0 14.398 14.411" fill="none">
  <path d="M 3.306 13.988 C 3.023 13.706 2.882 13.366 2.882 12.97 C 2.882 12.574 3.023 12.234 3.306 11.952 C 3.588 11.67 3.927 11.529 4.323 11.529 C 4.72 11.529 5.059 11.67 5.341 11.952 C 5.623 12.234 5.764 12.574 5.764 12.97 C 5.764 13.366 5.623 13.706 5.341 13.988 C 5.059 14.27 4.72 14.411 4.323 14.411 C 3.927 14.411 3.588 14.27 3.306 13.988 Z M 10.511 13.988 C 10.229 13.706 10.088 13.366 10.088 12.97 C 10.088 12.574 10.229 12.234 10.511 11.952 C 10.793 11.67 11.133 11.529 11.529 11.529 C 11.925 11.529 12.264 11.67 12.547 11.952 C 12.829 12.234 12.97 12.574 12.97 12.97 C 12.97 13.366 12.829 13.706 12.547 13.988 C 12.264 14.27 11.925 14.411 11.529 14.411 C 11.133 14.411 10.793 14.27 10.511 13.988 Z M 3.711 2.882 L 5.44 6.485 L 10.484 6.485 L 12.466 2.882 L 3.711 2.882 Z M 3.026 1.441 L 13.655 1.441 C 13.931 1.441 14.141 1.564 14.285 1.81 C 14.429 2.057 14.435 2.306 14.303 2.558 L 11.745 7.17 C 11.613 7.41 11.436 7.596 11.214 7.728 C 10.991 7.86 10.748 7.926 10.484 7.926 L 5.116 7.926 L 4.323 9.367 L 12.97 9.367 L 12.97 10.808 L 4.323 10.808 C 3.783 10.808 3.375 10.571 3.098 10.097 C 2.822 9.622 2.81 9.151 3.062 8.683 L 4.035 6.917 L 1.441 1.441 L 0 1.441 L 0 0 L 2.342 0 L 3.026 1.441 Z" fill="currentColor" fill-rule="nonzero"></path>
</svg>